<svg xmlns="http://www.w3.org/2000/svg" width="39" height="39" fill="none">
<symbol id="floppy" stroke="currentColor" fill="currentColor">
<path fill="currentColor" d="M0 0h3v3H0zm0 3h3v3H0zm0 3h3v3H0zm0 3h3v3H0zm0 3h3v3H0zm0 3h3v3H0zm0 3h3v3H0zm0 3h3v3H0zm0 3h3v3H0zm0 3h3v3H0zm0 3h3v3H0zm0 3h3v3H0zm0 3h3v3H0zM33 0v3h-3V0zM30 0v3h-3V0zm-3 0v3h-3V0zm-3 0v3h-3V0zm-3 0v3h-3V0zM18 0v3h-3V0zm-3 0v3h-3V0zM12 0v3H9V0zM9 0v3H6V0zM6 0v3H3V0zm30 3v3h-3V3zM9 6v3H6V6zm0-3v3H6V3zm0 6v3H6V9zm21-3v3h-3V6zm0-3v3h-3V3zm0 6v3h-3V9zm-6-3v3h-3V6zm0-3v3h-3V3zm0 6v3h-3V9zm6 3v3h-3v-3zm-3 0v3h-3v-3zm-3 0v3h-3v-3zm-3 0v3h-3v-3zM18 12v3h-3v-3zm-3 0v3h-3v-3zM12 12v3H9v-3zm-3 0v3H6v-3zm24 9v3h-3v-3zM30 21v3h-3v-3zm-3 0v3h-3v-3zm-3 0v3h-3v-3zm-3 0v3h-3v-3zM18 21v3h-3v-3zm-3 0v3h-3v-3zM12 21v3H9v-3zm-3 0v3H6v-3zm24 3v3h-3v-3zM9 24v3H6v-3zm24 3v3h-3v-3zM9 27v3H6v-3zm24 3v3h-3v-3zM9 30v3H6v-3zm0 3v3H6v-3zm24 0v3h-3v-3zm3 3v3h-3v-3zm-3 0v3h-3v-3zM30 36v3h-3v-3zm-3 0v3h-3v-3zm-3 0v3h-3v-3zm-3 0v3h-3v-3zM18 36v3h-3v-3zm-3 0v3h-3v-3zM12 36v3H9v-3zm-3 0v3H6v-3zM6 36v3H3v-3zm33 3h-3v-3h3zm0-3h-3v-3h3zm0-3h-3v-3h3zm0-3h-3v-3h3zm0-3h-3v-3h3zm0-3h-3v-3h3zm0-3h-3v-3h3zm0-3h-3v-3h3zm0-3h-3v-3h3zm0-3h-3V9h3zm0-3h-3V6h3z"/>
</symbol>
</svg>